<svg xmlns="http://www.w3.org/2000/svg" xmlns:xlink="http://www.w3.org/1999/xlink" width="500" zoomAndPan="magnify" viewBox="0 0 375 374.999991" height="500" preserveAspectRatio="xMidYMid meet" version="1.0"><defs><clipPath id="485b68c119"><path d="M 67.71875 67.71875 L 307.28125 67.71875 L 307.28125 307.28125 L 67.71875 307.28125 Z M 67.71875 67.71875 " clip-rule="nonzero"/></clipPath><clipPath id="b6d7f48690"><path d="M 84.96875 67.71875 L 290.03125 67.71875 C 294.605469 67.71875 298.996094 69.535156 302.230469 72.769531 C 305.464844 76.003906 307.28125 80.394531 307.28125 84.96875 L 307.28125 290.03125 C 307.28125 294.605469 305.464844 298.996094 302.230469 302.230469 C 298.996094 305.464844 294.605469 307.28125 290.03125 307.28125 L 84.96875 307.28125 C 80.394531 307.28125 76.003906 305.464844 72.769531 302.230469 C 69.535156 298.996094 67.71875 294.605469 67.71875 290.03125 L 67.71875 84.96875 C 67.71875 80.394531 69.535156 76.003906 72.769531 72.769531 C 76.003906 69.535156 80.394531 67.71875 84.96875 67.71875 Z M 84.96875 67.71875 " clip-rule="nonzero"/></clipPath><clipPath id="b6d00a3435"><path d="M 95.363281 103.425781 L 279.863281 103.425781 L 279.863281 271.425781 L 95.363281 271.425781 Z M 95.363281 103.425781 " clip-rule="nonzero"/></clipPath></defs><g clip-path="url(#485b68c119)"><g clip-path="url(#b6d7f48690)"><path fill="#3b82f6" d="M 67.71875 67.71875 L 307.28125 67.71875 L 307.28125 307.28125 L 67.71875 307.28125 Z M 67.71875 67.71875 " fill-opacity="1" fill-rule="nonzero"/></g></g><g clip-path="url(#b6d00a3435)"><path fill="#ffffff" d="M 211.90625 103.40625 C 207.199219 109.011719 167.835938 109.011719 163.128906 103.40625 C 162.136719 103.40625 95.367188 138.585938 95.367188 138.585938 L 110.917969 175.03125 L 133.429688 172.101562 L 133.429688 271.523438 L 241.609375 271.523438 L 241.609375 172.101562 L 264.117188 175.03125 L 279.667969 138.585938 C 279.652344 138.582031 212.886719 103.402344 211.898438 103.402344 Z M 164.300781 111.996094 C 178.492188 118.167969 199.472656 117.972656 210.734375 111.996094 C 203.984375 128.757812 176.335938 131.503906 164.300781 111.996094 Z M 164.300781 111.996094 " fill-opacity="1" fill-rule="evenodd"/></g></svg>