<svg xmlns="http://www.w3.org/2000/svg" xmlns:xlink="http://www.w3.org/1999/xlink" width="500" zoomAndPan="magnify" viewBox="0 0 375 374.999991" height="500" preserveAspectRatio="xMidYMid meet" version="1.0"><defs><clipPath id="f1b889ea0b"><path d="M 67.71875 67.71875 L 307.28125 67.71875 L 307.28125 307.28125 L 67.71875 307.28125 Z M 67.71875 67.71875 " clip-rule="nonzero"/></clipPath><clipPath id="4c249ba278"><path d="M 84.96875 67.71875 L 290.03125 67.71875 C 294.605469 67.71875 298.996094 69.535156 302.230469 72.769531 C 305.464844 76.003906 307.28125 80.394531 307.28125 84.96875 L 307.28125 290.03125 C 307.28125 294.605469 305.464844 298.996094 302.230469 302.230469 C 298.996094 305.464844 294.605469 307.28125 290.03125 307.28125 L 84.96875 307.28125 C 80.394531 307.28125 76.003906 305.464844 72.769531 302.230469 C 69.535156 298.996094 67.71875 294.605469 67.71875 290.03125 L 67.71875 84.96875 C 67.71875 80.394531 69.535156 76.003906 72.769531 72.769531 C 76.003906 69.535156 80.394531 67.71875 84.96875 67.71875 Z M 84.96875 67.71875 " clip-rule="nonzero"/></clipPath><clipPath id="a6c2a1a32d"><path d="M 106.332031 130 L 268.332031 130 L 268.332031 286.203125 L 106.332031 286.203125 Z M 106.332031 130 " clip-rule="nonzero"/></clipPath><clipPath id="5f7cb5dcbb"><path d="M 106.332031 88.953125 L 268.332031 88.953125 L 268.332031 126 L 106.332031 126 Z M 106.332031 88.953125 " clip-rule="nonzero"/></clipPath></defs><g clip-path="url(#f1b889ea0b)"><g clip-path="url(#4c249ba278)"><path fill="#3b82f6" d="M 67.71875 67.71875 L 307.28125 67.71875 L 307.28125 307.28125 L 67.71875 307.28125 Z M 67.71875 67.71875 " fill-opacity="1" fill-rule="nonzero"/></g></g><g clip-path="url(#a6c2a1a32d)"><path fill="#ffffff" d="M 268.535156 130.125 L 106.410156 130.125 L 106.410156 263.359375 C 106.410156 275.894531 116.585938 286.070312 129.121094 286.070312 L 245.824219 286.070312 C 258.359375 286.070312 268.535156 275.894531 268.535156 263.359375 Z M 187.472656 152.207031 C 159.945312 152.207031 137.597656 174.554688 137.597656 202.082031 C 137.597656 229.609375 159.945312 251.960938 187.472656 251.960938 C 215 251.960938 237.351562 229.609375 237.351562 202.082031 C 237.351562 174.554688 215 152.207031 187.472656 152.207031 Z M 187.472656 152.207031 " fill-opacity="1" fill-rule="evenodd"/></g><path fill="#ffffff" d="M 187.472656 159.238281 C 211.121094 159.238281 230.320312 178.4375 230.320312 202.082031 C 230.320312 225.730469 211.121094 244.929688 187.472656 244.929688 C 163.824219 244.929688 144.628906 225.730469 144.628906 202.082031 C 144.628906 178.4375 163.824219 159.238281 187.472656 159.238281 Z M 224.953125 202.082031 C 224.953125 222.769531 208.160156 239.5625 187.472656 239.5625 C 166.789062 239.5625 149.992188 222.769531 149.992188 202.082031 C 149.992188 202.082031 160.464844 197.480469 164.949219 196.847656 C 168.925781 196.285156 173.210938 196.714844 176.90625 198.28125 C 182.332031 200.578125 190.605469 209.5625 197.511719 210.632812 C 208.609375 212.355469 215.582031 196.855469 224.953125 202.082031 Z M 224.953125 202.082031 " fill-opacity="1" fill-rule="evenodd"/><g clip-path="url(#5f7cb5dcbb)"><path fill="#ffffff" d="M 106.410156 125.261719 L 268.539062 125.261719 L 268.539062 111.675781 C 268.539062 99.140625 258.359375 88.964844 245.828125 88.964844 L 129.121094 88.964844 C 116.585938 88.964844 106.410156 99.140625 106.410156 111.675781 Z M 220.011719 101.652344 C 223.058594 101.652344 225.53125 104.125 225.53125 107.171875 C 225.53125 110.214844 223.058594 112.6875 220.011719 112.6875 C 216.96875 112.6875 214.496094 110.214844 214.496094 107.171875 C 214.496094 104.125 216.96875 101.652344 220.011719 101.652344 Z M 240.871094 101.652344 C 243.917969 101.652344 246.390625 104.125 246.390625 107.171875 C 246.390625 110.214844 243.917969 112.6875 240.871094 112.6875 C 237.828125 112.6875 235.355469 110.214844 235.355469 107.171875 C 235.355469 104.125 237.828125 101.652344 240.871094 101.652344 Z M 171.636719 104.949219 L 122.511719 104.949219 L 122.511719 109.285156 L 171.636719 109.285156 Z M 171.636719 104.949219 " fill-opacity="1" fill-rule="evenodd"/></g></svg>