<svg xmlns="http://www.w3.org/2000/svg" xmlns:xlink="http://www.w3.org/1999/xlink" width="500" zoomAndPan="magnify" viewBox="0 0 375 374.999991" height="500" preserveAspectRatio="xMidYMid meet" version="1.0"><defs><clipPath id="bee4f7ffb0"><path d="M 67.71875 67.71875 L 307.28125 67.71875 L 307.28125 307.28125 L 67.71875 307.28125 Z M 67.71875 67.71875 " clip-rule="nonzero"/></clipPath><clipPath id="c15d6cf4fe"><path d="M 84.96875 67.71875 L 290.03125 67.71875 C 294.605469 67.71875 298.996094 69.535156 302.230469 72.769531 C 305.464844 76.003906 307.28125 80.394531 307.28125 84.96875 L 307.28125 290.03125 C 307.28125 294.605469 305.464844 298.996094 302.230469 302.230469 C 298.996094 305.464844 294.605469 307.28125 290.03125 307.28125 L 84.96875 307.28125 C 80.394531 307.28125 76.003906 305.464844 72.769531 302.230469 C 69.535156 298.996094 67.71875 294.605469 67.71875 290.03125 L 67.71875 84.96875 C 67.71875 80.394531 69.535156 76.003906 72.769531 72.769531 C 76.003906 69.535156 80.394531 67.71875 84.96875 67.71875 Z M 84.96875 67.71875 " clip-rule="nonzero"/></clipPath></defs><g clip-path="url(#bee4f7ffb0)"><g clip-path="url(#c15d6cf4fe)"><path fill="#3b82f6" d="M 67.71875 67.71875 L 307.28125 67.71875 L 307.28125 307.28125 L 67.71875 307.28125 Z M 67.71875 67.71875 " fill-opacity="1" fill-rule="nonzero"/></g></g><path fill="#ffffff" d="M 288.703125 252.988281 L 86.320312 252.988281 C 82.917969 252.988281 80.136719 250.269531 80.054688 246.867188 C 79.808594 236.4375 87.34375 229.472656 91.835938 227 L 174.804688 178.707031 C 177.796875 176.96875 181.632812 177.972656 183.375 180.972656 C 185.117188 183.964844 184.105469 187.804688 181.109375 189.542969 L 98.007812 237.910156 C 97.855469 238.007812 96.367188 238.875 94.988281 240.449219 L 280.039062 240.449219 C 278.652344 238.863281 277.171875 238.007812 277.144531 237.984375 L 198.554688 191.488281 C 191.878906 188.132812 188.195312 183.648438 187.96875 178.359375 C 187.65625 170.894531 194.644531 166.359375 195.445312 165.867188 C 195.941406 165.5625 196.476562 165.324219 197.039062 165.164062 C 211.65625 161.050781 210.960938 151.101562 210.949219 151 C 210.925781 141.679688 203.789062 134.542969 195.019531 134.542969 C 186.246094 134.542969 179.113281 141.679688 179.113281 150.453125 C 179.113281 153.917969 176.304688 156.722656 172.84375 156.722656 C 169.382812 156.722656 166.574219 153.917969 166.574219 150.453125 C 166.574219 134.769531 179.335938 122.007812 195.019531 122.007812 C 210.707031 122.007812 223.460938 134.769531 223.460938 150.453125 C 224.042969 156.820312 220.191406 171.160156 201.539062 176.914062 C 201.203125 177.195312 200.871094 177.535156 200.664062 177.820312 C 201.0625 178.289062 202.097656 179.25 204.574219 180.5 L 283.359375 227.097656 C 287.679688 229.46875 295.210938 236.4375 294.96875 246.867188 C 294.886719 250.269531 292.105469 252.988281 288.703125 252.988281 Z M 288.703125 252.988281 " fill-opacity="1" fill-rule="nonzero"/></svg>