<svg xmlns="http://www.w3.org/2000/svg" xmlns:xlink="http://www.w3.org/1999/xlink" width="500" zoomAndPan="magnify" viewBox="0 0 375 374.999991" height="500" preserveAspectRatio="xMidYMid meet" version="1.0"><defs><clipPath id="ebb0978cbb"><path d="M 67.71875 67.71875 L 307.28125 67.71875 L 307.28125 307.28125 L 67.71875 307.28125 Z M 67.71875 67.71875 " clip-rule="nonzero"/></clipPath><clipPath id="531f24505e"><path d="M 84.96875 67.71875 L 290.03125 67.71875 C 294.605469 67.71875 298.996094 69.535156 302.230469 72.769531 C 305.464844 76.003906 307.28125 80.394531 307.28125 84.96875 L 307.28125 290.03125 C 307.28125 294.605469 305.464844 298.996094 302.230469 302.230469 C 298.996094 305.464844 294.605469 307.28125 290.03125 307.28125 L 84.96875 307.28125 C 80.394531 307.28125 76.003906 305.464844 72.769531 302.230469 C 69.535156 298.996094 67.71875 294.605469 67.71875 290.03125 L 67.71875 84.96875 C 67.71875 80.394531 69.535156 76.003906 72.769531 72.769531 C 76.003906 69.535156 80.394531 67.71875 84.96875 67.71875 Z M 84.96875 67.71875 " clip-rule="nonzero"/></clipPath><clipPath id="45f0afc1fd"><path d="M 97.5625 113.523438 L 277.5625 113.523438 L 277.5625 261 L 97.5625 261 Z M 97.5625 113.523438 " clip-rule="nonzero"/></clipPath></defs><g clip-path="url(#ebb0978cbb)"><g clip-path="url(#531f24505e)"><path fill="#3b82f6" d="M 67.71875 67.71875 L 307.28125 67.71875 L 307.28125 307.28125 L 67.71875 307.28125 Z M 67.71875 67.71875 " fill-opacity="1" fill-rule="nonzero"/></g></g><g clip-path="url(#45f0afc1fd)"><path fill="#ffffff" d="M 97.585938 260.910156 L 97.714844 253.203125 C 98.351562 223.046875 115.703125 165.542969 176.992188 164.054688 L 248.789062 164.054688 C 246.667969 148.964844 244.371094 132.289062 243.917969 129.039062 L 143.597656 129.039062 L 143.597656 113.988281 L 256.988281 113.988281 L 277.449219 260.910156 L 97.585938 260.910156 M 113.402344 245.859375 L 260.191406 245.859375 C 259.070312 237.789062 255.464844 211.78125 250.910156 179.113281 L 177.175781 179.113281 C 126.65625 180.28125 115.75 227.015625 113.40625 245.859375 " fill-opacity="1" fill-rule="nonzero"/></g><path fill="#ffffff" d="M 147.382812 209.621094 C 147.382812 203.722656 152.160156 198.941406 158.105469 198.941406 C 164.011719 198.941406 168.792969 203.722656 168.792969 209.621094 C 168.792969 215.523438 164.011719 220.347656 158.105469 220.347656 C 152.160156 220.347656 147.382812 215.523438 147.382812 209.621094 " fill-opacity="1" fill-rule="nonzero"/><path fill="#ffffff" d="M 176.816406 209.621094 C 176.816406 203.722656 181.636719 198.941406 187.535156 198.941406 C 193.4375 198.941406 198.21875 203.722656 198.21875 209.621094 C 198.21875 215.523438 193.4375 220.347656 187.535156 220.347656 C 181.636719 220.347656 176.816406 215.523438 176.816406 209.621094 " fill-opacity="1" fill-rule="nonzero"/><path fill="#ffffff" d="M 208.273438 209.621094 C 208.273438 203.722656 213.042969 198.941406 218.996094 198.941406 C 224.898438 198.941406 229.675781 203.722656 229.675781 209.621094 C 229.675781 215.523438 224.898438 220.347656 218.996094 220.347656 C 213.042969 220.347656 208.273438 215.523438 208.273438 209.621094 " fill-opacity="1" fill-rule="nonzero"/></svg>