<svg xmlns="http://www.w3.org/2000/svg" xmlns:xlink="http://www.w3.org/1999/xlink" width="500" zoomAndPan="magnify" viewBox="0 0 375 374.999991" height="500" preserveAspectRatio="xMidYMid meet" version="1.0"><defs><clipPath id="733e6d25a1"><path d="M 31.761719 31.761719 L 182.433594 31.761719 L 182.433594 182.433594 L 31.761719 182.433594 Z M 31.761719 31.761719 " clip-rule="nonzero"/></clipPath><clipPath id="94e73931c6"><path d="M 49.011719 31.761719 L 165.183594 31.761719 C 174.710938 31.761719 182.433594 39.484375 182.433594 49.011719 L 182.433594 165.183594 C 182.433594 174.710938 174.710938 182.433594 165.183594 182.433594 L 49.011719 182.433594 C 39.484375 182.433594 31.761719 174.710938 31.761719 165.183594 L 31.761719 49.011719 C 31.761719 39.484375 39.484375 31.761719 49.011719 31.761719 Z M 49.011719 31.761719 " clip-rule="nonzero"/></clipPath><clipPath id="cf13e0d79a"><path d="M 192.566406 31.761719 L 343.238281 31.761719 L 343.238281 182.433594 L 192.566406 182.433594 Z M 192.566406 31.761719 " clip-rule="nonzero"/></clipPath><clipPath id="1df0a2dfef"><path d="M 209.816406 31.761719 L 325.988281 31.761719 C 335.515625 31.761719 343.238281 39.484375 343.238281 49.011719 L 343.238281 165.183594 C 343.238281 174.710938 335.515625 182.433594 325.988281 182.433594 L 209.816406 182.433594 C 200.289062 182.433594 192.566406 174.710938 192.566406 165.183594 L 192.566406 49.011719 C 192.566406 39.484375 200.289062 31.761719 209.816406 31.761719 Z M 209.816406 31.761719 " clip-rule="nonzero"/></clipPath><clipPath id="df07f3c670"><path d="M 31.761719 192.566406 L 182.433594 192.566406 L 182.433594 343.238281 L 31.761719 343.238281 Z M 31.761719 192.566406 " clip-rule="nonzero"/></clipPath><clipPath id="62960329b6"><path d="M 49.011719 192.566406 L 165.183594 192.566406 C 174.710938 192.566406 182.433594 200.289062 182.433594 209.816406 L 182.433594 325.988281 C 182.433594 335.515625 174.710938 343.238281 165.183594 343.238281 L 49.011719 343.238281 C 39.484375 343.238281 31.761719 335.515625 31.761719 325.988281 L 31.761719 209.816406 C 31.761719 200.289062 39.484375 192.566406 49.011719 192.566406 Z M 49.011719 192.566406 " clip-rule="nonzero"/></clipPath><clipPath id="5de17f57ee"><path d="M 192.566406 192.566406 L 343.238281 192.566406 L 343.238281 343.238281 L 192.566406 343.238281 Z M 192.566406 192.566406 " clip-rule="nonzero"/></clipPath><clipPath id="d6ba922a0d"><path d="M 209.816406 192.566406 L 325.988281 192.566406 C 335.515625 192.566406 343.238281 200.289062 343.238281 209.816406 L 343.238281 325.988281 C 343.238281 335.515625 335.515625 343.238281 325.988281 343.238281 L 209.816406 343.238281 C 200.289062 343.238281 192.566406 335.515625 192.566406 325.988281 L 192.566406 209.816406 C 192.566406 200.289062 200.289062 192.566406 209.816406 192.566406 Z M 209.816406 192.566406 " clip-rule="nonzero"/></clipPath><clipPath id="ff4bb23db5"><path d="M 49.148438 54.21875 L 165.648438 54.21875 L 165.648438 159.753906 L 49.148438 159.753906 Z M 49.148438 54.21875 " clip-rule="nonzero"/></clipPath><clipPath id="9cec266eeb"><path d="M 224.351562 76 L 312 76 L 312 159.753906 L 224.351562 159.753906 Z M 224.351562 76 " clip-rule="nonzero"/></clipPath><clipPath id="bd2ea8d5b6"><path d="M 224.351562 54.21875 L 312 54.21875 L 312 74 L 224.351562 74 Z M 224.351562 54.21875 " clip-rule="nonzero"/></clipPath><clipPath id="b4298b16da"><path d="M 45.222656 230.214844 L 168.574219 230.214844 L 168.574219 305.597656 L 45.222656 305.597656 Z M 45.222656 230.214844 " clip-rule="nonzero"/></clipPath><clipPath id="233eebb0ef"><path d="M 218.742188 227.46875 L 317.425781 227.46875 L 317.425781 308.332031 L 218.742188 308.332031 Z M 218.742188 227.46875 " clip-rule="nonzero"/></clipPath></defs><g clip-path="url(#733e6d25a1)"><g clip-path="url(#94e73931c6)"><path fill="#ffffff" d="M 31.761719 31.761719 L 182.433594 31.761719 L 182.433594 182.433594 L 31.761719 182.433594 Z M 31.761719 31.761719 " fill-opacity="1" fill-rule="nonzero"/></g></g><g clip-path="url(#cf13e0d79a)"><g clip-path="url(#1df0a2dfef)"><path fill="#ffffff" d="M 192.566406 31.761719 L 343.238281 31.761719 L 343.238281 182.433594 L 192.566406 182.433594 Z M 192.566406 31.761719 " fill-opacity="1" fill-rule="nonzero"/></g></g><g clip-path="url(#df07f3c670)"><g clip-path="url(#62960329b6)"><path fill="#ffffff" d="M 31.761719 192.566406 L 182.433594 192.566406 L 182.433594 343.238281 L 31.761719 343.238281 Z M 31.761719 192.566406 " fill-opacity="1" fill-rule="nonzero"/></g></g><g clip-path="url(#5de17f57ee)"><g clip-path="url(#d6ba922a0d)"><path fill="#ffffff" d="M 192.566406 192.566406 L 343.238281 192.566406 L 343.238281 343.238281 L 192.566406 343.238281 Z M 192.566406 192.566406 " fill-opacity="1" fill-rule="nonzero"/></g></g><g clip-path="url(#ff4bb23db5)"><path fill="#3b82f6" d="M 122.4375 54.210938 C 119.476562 57.738281 94.722656 57.738281 91.761719 54.210938 C 91.140625 54.210938 49.148438 76.335938 49.148438 76.335938 L 58.929688 99.253906 L 73.085938 97.414062 L 73.085938 159.933594 L 141.117188 159.933594 L 141.117188 97.414062 L 155.273438 99.253906 L 165.050781 76.335938 C 165.042969 76.332031 123.054688 54.210938 122.433594 54.210938 Z M 92.5 59.613281 C 101.425781 63.496094 114.621094 63.371094 121.703125 59.613281 C 117.457031 70.15625 100.070312 71.882812 92.5 59.613281 Z M 92.5 59.613281 " fill-opacity="1" fill-rule="evenodd"/></g><g clip-path="url(#9cec266eeb)"><path fill="#3b82f6" d="M 311.382812 76.3125 L 224.390625 76.3125 L 224.390625 147.800781 C 224.390625 154.527344 229.851562 159.984375 236.578125 159.984375 L 299.195312 159.984375 C 305.921875 159.984375 311.382812 154.527344 311.382812 147.800781 Z M 267.886719 88.160156 C 253.117188 88.160156 241.125 100.152344 241.125 114.921875 C 241.125 129.691406 253.117188 141.683594 267.886719 141.683594 C 282.65625 141.683594 294.648438 129.691406 294.648438 114.921875 C 294.648438 100.152344 282.65625 88.160156 267.886719 88.160156 Z M 267.886719 88.160156 " fill-opacity="1" fill-rule="evenodd"/></g><path fill="#3b82f6" d="M 267.886719 91.933594 C 280.574219 91.933594 290.875 102.234375 290.875 114.921875 C 290.875 127.609375 280.574219 137.910156 267.886719 137.910156 C 255.199219 137.910156 244.898438 127.609375 244.898438 114.921875 C 244.898438 102.234375 255.199219 91.933594 267.886719 91.933594 Z M 287.996094 114.921875 C 287.996094 126.019531 278.984375 135.03125 267.886719 135.03125 C 256.789062 135.03125 247.777344 126.019531 247.777344 114.921875 C 247.777344 114.921875 253.394531 112.453125 255.800781 112.113281 C 257.933594 111.8125 260.234375 112.042969 262.21875 112.882812 C 265.128906 114.113281 269.566406 118.9375 273.273438 119.511719 C 279.226562 120.433594 282.96875 112.117188 287.996094 114.921875 Z M 287.996094 114.921875 " fill-opacity="1" fill-rule="evenodd"/><g clip-path="url(#bd2ea8d5b6)"><path fill="#3b82f6" d="M 224.390625 73.703125 L 311.382812 73.703125 L 311.382812 66.414062 C 311.382812 59.6875 305.921875 54.226562 299.195312 54.226562 L 236.578125 54.226562 C 229.851562 54.226562 224.390625 59.6875 224.390625 66.414062 Z M 285.34375 61.035156 C 286.980469 61.035156 288.304688 62.363281 288.304688 63.996094 C 288.304688 65.628906 286.980469 66.957031 285.34375 66.957031 C 283.710938 66.957031 282.386719 65.628906 282.386719 63.996094 C 282.386719 62.363281 283.710938 61.035156 285.34375 61.035156 Z M 296.539062 61.035156 C 298.171875 61.035156 299.5 62.363281 299.5 63.996094 C 299.5 65.628906 298.171875 66.957031 296.539062 66.957031 C 294.90625 66.957031 293.578125 65.628906 293.578125 63.996094 C 293.578125 62.363281 294.90625 61.035156 296.539062 61.035156 Z M 259.386719 62.800781 L 233.03125 62.800781 L 233.03125 65.128906 L 259.386719 65.128906 Z M 259.386719 62.800781 " fill-opacity="1" fill-rule="evenodd"/></g><g clip-path="url(#b4298b16da)"><path fill="#3b82f6" d="M 165.242188 305.527344 L 48.960938 305.527344 C 47.003906 305.527344 45.40625 303.964844 45.359375 302.011719 C 45.21875 296.015625 49.550781 292.015625 52.128906 290.59375 L 99.800781 262.847656 C 101.519531 261.847656 103.726562 262.425781 104.726562 264.148438 C 105.726562 265.867188 105.144531 268.074219 103.425781 269.074219 L 55.675781 296.863281 C 55.585938 296.917969 54.734375 297.417969 53.941406 298.324219 L 160.265625 298.324219 C 159.46875 297.410156 158.621094 296.917969 158.605469 296.90625 L 113.445312 270.191406 C 109.609375 268.261719 107.496094 265.683594 107.367188 262.644531 C 107.183594 258.359375 111.203125 255.75 111.660156 255.46875 C 111.945312 255.292969 112.253906 255.15625 112.574219 255.066406 C 120.976562 252.703125 120.574219 246.984375 120.570312 246.925781 C 120.554688 241.574219 116.457031 237.472656 111.417969 237.472656 C 106.375 237.472656 102.277344 241.574219 102.277344 246.613281 C 102.277344 248.605469 100.664062 250.214844 98.675781 250.214844 C 96.683594 250.214844 95.074219 248.605469 95.074219 246.613281 C 95.074219 237.601562 102.40625 230.269531 111.417969 230.269531 C 120.429688 230.269531 127.757812 237.601562 127.757812 246.613281 C 128.09375 250.269531 125.878906 258.507812 115.160156 261.816406 C 114.96875 261.976562 114.777344 262.175781 114.660156 262.335938 C 114.890625 262.605469 115.484375 263.160156 116.90625 263.875 L 162.171875 290.652344 C 164.65625 292.015625 168.984375 296.015625 168.84375 302.011719 C 168.796875 303.964844 167.199219 305.527344 165.242188 305.527344 Z M 165.242188 305.527344 " fill-opacity="1" fill-rule="nonzero"/></g><g clip-path="url(#233eebb0ef)"><path fill="#3b82f6" d="M 218.757812 308.019531 L 218.828125 303.804688 C 219.175781 287.328125 228.65625 255.902344 262.152344 255.089844 L 301.386719 255.089844 C 300.230469 246.839844 298.972656 237.730469 298.726562 235.953125 L 243.902344 235.953125 L 243.902344 227.730469 L 305.867188 227.730469 L 317.046875 308.019531 L 218.757812 308.019531 M 227.398438 299.792969 L 307.617188 299.792969 C 307.003906 295.382812 305.035156 281.171875 302.546875 263.316406 L 262.25 263.316406 C 234.644531 263.957031 228.683594 289.496094 227.402344 299.792969 " fill-opacity="1" fill-rule="nonzero"/></g><path fill="#3b82f6" d="M 245.972656 279.992188 C 245.972656 276.765625 248.582031 274.15625 251.832031 274.15625 C 255.058594 274.15625 257.671875 276.765625 257.671875 279.992188 C 257.671875 283.214844 255.058594 285.851562 251.832031 285.851562 C 248.582031 285.851562 245.972656 283.214844 245.972656 279.992188 " fill-opacity="1" fill-rule="nonzero"/><path fill="#3b82f6" d="M 262.054688 279.992188 C 262.054688 276.765625 264.6875 274.15625 267.914062 274.15625 C 271.140625 274.15625 273.75 276.765625 273.75 279.992188 C 273.75 283.214844 271.136719 285.851562 267.914062 285.851562 C 264.6875 285.851562 262.054688 283.214844 262.054688 279.992188 " fill-opacity="1" fill-rule="nonzero"/><path fill="#3b82f6" d="M 279.246094 279.992188 C 279.246094 276.765625 281.851562 274.15625 285.105469 274.15625 C 288.332031 274.15625 290.941406 276.765625 290.941406 279.992188 C 290.941406 283.214844 288.332031 285.851562 285.105469 285.851562 C 281.851562 285.851562 279.246094 283.214844 279.246094 279.992188 " fill-opacity="1" fill-rule="nonzero"/></svg>